HIERARCHY
ROOT joint_Root
{
	OFFSET 0.0 0.0 0.0
	CHANNELS 6 Xposition Yposition Zposition Zrotation Xrotation Yrotation 
	JOINT Hips
	{
		OFFSET -0.726466 93.3139 -2.00062
		CHANNELS 6 Xposition Yposition Zposition Zrotation Xrotation Yrotation 
		JOINT Spine
		{
			OFFSET 15.7357 0.0 0.0
			CHANNELS 6 Xposition Yposition Zposition Zrotation Xrotation Yrotation 
			JOINT Chest
			{
				OFFSET 8.98455 -0.406207 0.0
				CHANNELS 6 Xposition Yposition Zposition Zrotation Xrotation Yrotation 
				JOINT Neck
				{
					OFFSET 16.3773 0.0 0.0
					CHANNELS 6 Xposition Yposition Zposition Zrotation Xrotation Yrotation 
					JOINT Head
					{
						OFFSET 6.45672 0.0 0.0
						CHANNELS 6 Xposition Yposition Zposition Zrotation Xrotation Yrotation 
						End Site
						{
							OFFSET 0.0 0.0 0.0
						}
					}
				}
				JOINT Shoulder_L
				{
					OFFSET 12.9942 -0.242716 4.98039
					CHANNELS 6 Xposition Yposition Zposition Zrotation Xrotation Yrotation 
					JOINT UpperArm_L
					{
						OFFSET 5.34809 0.0 0.0
						CHANNELS 6 Xposition Yposition Zposition Zrotation Xrotation Yrotation 
						JOINT LowerArm_L
						{
							OFFSET 24.3286 1.87007e-05 0.0
							CHANNELS 6 Xposition Yposition Zposition Zrotation Xrotation Yrotation 
							JOINT Hand_L
							{
								OFFSET 22.2916 0.0 0.0
								CHANNELS 6 Xposition Yposition Zposition Zrotation Xrotation Yrotation 
								End Site
								{
									OFFSET 0.0 0.0 0.0
								}
							}
						}
					}
				}
				JOINT Shoulder_R
				{
					OFFSET 12.9945 -0.242716 -4.98039
					CHANNELS 6 Xposition Yposition Zposition Zrotation Xrotation Yrotation 
					JOINT UpperArm_R
					{
						OFFSET -5.34813 0.0 0.0
						CHANNELS 6 Xposition Yposition Zposition Zrotation Xrotation Yrotation 
						JOINT LowerArm_R
						{
							OFFSET -24.3289 0.000322201 0.0
							CHANNELS 6 Xposition Yposition Zposition Zrotation Xrotation Yrotation 
							JOINT Hand_R
							{
								OFFSET -22.2915 -0.000108084 0.0
								CHANNELS 6 Xposition Yposition Zposition Zrotation Xrotation Yrotation 
								End Site
								{
									OFFSET 0.0 0.0 0.0
								}
							}
						}
					}
				}
			}
		}
		JOINT UpperLeg_L
		{
			OFFSET -2.19248 -6.46944 0.0
			CHANNELS 6 Xposition Yposition Zposition Zrotation Xrotation Yrotation 
			JOINT LowerLeg_L
			{
				OFFSET 39.0811 0.0 -1.23785e-05
				CHANNELS 6 Xposition Yposition Zposition Zrotation Xrotation Yrotation 
				JOINT Foot_L
				{
					OFFSET 40.9854 0.0 -1.26872e-05
					CHANNELS 6 Xposition Yposition Zposition Zrotation Xrotation Yrotation 
					JOINT Toes_L
					{
						OFFSET 11.7543 0.0 0.0
						CHANNELS 6 Xposition Yposition Zposition Zrotation Xrotation Yrotation 
						End Site
						{
							OFFSET 0.0 0.0 0.0
						}
					}
				}
			}
		}
		JOINT UpperLeg_R
		{
			OFFSET -2.19251 6.46944 0.0
			CHANNELS 6 Xposition Yposition Zposition Zrotation Xrotation Yrotation 
			JOINT LowerLeg_R
			{
				OFFSET -39.0811 -0.00228153 -0.0401928
				CHANNELS 6 Xposition Yposition Zposition Zrotation Xrotation Yrotation 
				JOINT Foot_R
				{
					OFFSET -40.9854 0.0 0.0
					CHANNELS 6 Xposition Yposition Zposition Zrotation Xrotation Yrotation 
					JOINT Toes_R
					{
						OFFSET -11.7543 0.0 0.0
						CHANNELS 6 Xposition Yposition Zposition Zrotation Xrotation Yrotation 
						End Site
						{
							OFFSET 0.0 0.0 0.0
						}
					}
				}
			}
		}
	}
}
MOTION
Frames:	8
Frame Time:	0.0333333
0.000000 0.000000 0.000000 0.000000 0.000000 -0.000000 1.456960 90.456700 54.441600 -87.798500 -1.380670 -175.727000 15.735700 0.000005 -0.000001 85.917600 81.875200 -84.876800 8.984550 -0.406207 -0.000000 8.454870 -1.145130 2.164430 16.377300 -0.000001 -0.000001 7.240270 -1.723120 -0.988216 6.456720 -0.000001 -0.000000 1.649120 -0.654111 4.103830 12.994200 -0.242716 4.980390 -88.479500 -3.934540 -68.851000 5.348090 -0.000007 -0.000001 -57.579300 38.506200 -14.329500 24.328600 0.000019 0.000005 6.826050 6.574730 -46.272100 22.291600 -0.000001 0.000005 5.830450 5.580700 -10.248800 12.994500 -0.242716 -4.980390 88.381700 3.948740 -67.694200 -5.348130 -0.000001 -0.000004 -52.915400 30.989300 -18.058000 -24.328900 0.000322 -0.000009 4.819250 6.506830 -36.655300 -22.291500 -0.000108 -0.000004 2.593470 5.574320 -9.911070 -2.192480 -6.469440 -0.000000 -172.263000 -6.892150 -17.381600 39.081100 -0.000007 -0.000012 0.117563 -0.054205 65.244800 40.985400 -0.000006 -0.000013 2.906460 0.079194 -56.986400 11.754300 -0.000000 0.000003 -0.006038 -0.071192 -19.474200 -2.192510 6.469440 -0.000001 -177.120000 16.125200 169.454000 -39.081100 -0.002282 -0.040193 0.075772 -0.110495 33.262100 -40.985400 0.000008 0.000006 6.300770 -5.048350 -68.659000 -11.754300 -0.000006 -0.000006 -0.006225 -0.072862 -19.538700
0.000000 0.000000 0.000000 0.000000 0.000000 -0.000000 1.442780 91.018900 51.747400 -88.422300 -0.122241 -175.872000 15.735700 0.000005 -0.000001 90.502000 81.834500 -89.814100 8.984550 -0.406207 -0.000000 8.563900 0.147188 1.363650 16.377300 -0.000001 -0.000001 6.999310 -1.380380 -0.751409 6.456720 -0.000001 -0.000000 1.514980 -1.447310 3.864680 12.994200 -0.242716 4.980390 -88.460400 -3.819070 -68.024400 5.348090 -0.000007 -0.000001 -60.506600 38.121900 -10.002800 24.328600 0.000019 0.000005 6.539410 6.738550 -44.331300 22.291600 -0.000001 0.000005 5.323050 5.577110 -10.058000 12.994500 -0.242716 -4.980390 88.550700 3.688290 -68.531300 -5.348130 -0.000001 -0.000004 -50.580700 30.669500 -22.759900 -24.328900 0.000322 -0.000009 4.883720 6.187390 -38.412800 -22.291500 -0.000108 -0.000004 2.698620 5.574770 -9.934960 -2.192480 -6.469440 -0.000000 -173.967000 -7.748900 -20.236500 39.081100 -0.000007 -0.000012 0.083333 -0.049597 59.238100 40.985400 -0.000006 -0.000013 2.210300 -0.356752 -58.658400 11.754300 -0.000000 0.000003 -0.005375 -0.065054 -19.223900 -2.192510 6.469440 -0.000001 -178.302000 15.749900 172.984000 -39.081100 -0.002282 -0.040193 0.061161 -0.099963 30.062600 -40.985400 0.000008 0.000006 6.056420 -3.930110 -68.948600 -11.754300 -0.000006 -0.000006 -0.006490 -0.075225 -19.635000
0.000000 0.000000 0.000000 0.000000 0.000000 -0.000000 1.343730 91.349300 49.105400 -88.908100 1.372880 -175.968000 15.735700 0.000005 -0.000001 95.367400 81.654500 -94.942900 8.984550 -0.406207 -0.000000 8.848530 1.557360 0.727806 16.377300 -0.000001 -0.000001 6.718500 -1.085270 -0.709019 6.456720 -0.000001 -0.000000 1.284330 -2.106080 3.619220 12.994200 -0.242716 4.980390 -88.521600 -3.516020 -67.175900 5.348090 -0.000007 -0.000001 -62.910500 37.066600 -5.996460 24.328600 0.000019 0.000005 6.345250 6.918360 -42.711900 22.291600 -0.000001 0.000005 4.958180 5.574370 -9.913610 12.994500 -0.242716 -4.980390 88.754600 3.323510 -69.445600 -5.348130 -0.000001 -0.000004 -48.076700 29.618200 -27.341400 -24.328900 0.000322 -0.000009 4.706250 5.576790 -40.276900 -22.291500 -0.000108 -0.000004 3.002200 5.574360 -9.913020 -2.192480 -6.469440 -0.000000 -175.177000 -8.571970 -22.004000 39.081100 -0.000007 -0.000012 0.056516 -0.046445 50.584400 40.985400 -0.000006 -0.000013 1.685840 -2.009890 -58.790900 11.754300 -0.000000 0.000003 -0.005998 -0.070822 -19.459100 -2.192510 6.469440 -0.000001 -179.442000 15.248600 176.255000 -39.081100 -0.002282 -0.040193 0.047911 -0.086531 27.269300 -40.985400 0.000008 0.000006 5.718530 -2.845300 -69.451700 -11.754300 -0.000006 -0.000006 -0.006021 -0.071024 -19.463700
0.000000 0.000000 0.000000 0.000000 0.000000 -0.000000 1.204710 91.301300 46.428600 -89.004500 3.121940 -176.207000 15.735700 0.000005 -0.000001 100.273000 81.421700 -99.969600 8.984550 -0.406207 -0.000000 9.116920 3.046920 0.364060 16.377300 -0.000001 -0.000001 6.445720 -0.643505 -0.837165 6.456720 -0.000001 -0.000000 1.107470 -2.755650 3.529160 12.994200 -0.242716 4.980390 -88.605600 -3.160900 -66.180000 5.348090 -0.000007 -0.000001 -64.805500 35.556000 -2.480840 24.328600 0.000019 0.000005 5.894770 6.780610 -41.168100 22.291600 -0.000001 0.000005 4.643930 5.576840 -10.042900 12.994500 -0.242716 -4.980390 88.951900 2.935090 -70.339000 -5.348130 -0.000001 -0.000004 -45.465800 28.099700 -31.910200 -24.328900 0.000322 -0.000009 4.490860 5.067780 -41.649000 -22.291500 -0.000108 -0.000004 3.307080 5.577340 -10.069600 -2.192480 -6.469440 -0.000000 -175.603000 -9.360690 -22.870700 39.081100 -0.000007 -0.000012 0.036367 -0.043125 40.138900 40.985400 -0.000006 -0.000013 1.630190 -3.119110 -58.029200 11.754300 -0.000000 0.000003 -0.005617 -0.067326 -19.316600 -2.192510 6.469440 -0.000001 179.784000 14.444300 178.732000 -39.081100 -0.002282 -0.040193 0.043832 -0.083982 25.757600 -40.985400 0.000008 0.000006 5.367410 -1.796840 -70.666400 -11.754300 -0.000006 -0.000006 -0.006651 -0.076641 -19.692800
0.000000 0.000000 0.000000 0.000000 0.000000 -0.000000 1.057000 90.939400 43.604800 -88.496900 4.980560 -176.515000 15.735700 0.000005 -0.000001 105.022000 81.204200 -104.655000 8.984550 -0.406207 -0.000000 9.231380 4.539150 0.365902 16.377300 -0.000001 -0.000001 6.355170 -0.148176 -0.946825 6.456720 -0.000001 -0.000000 1.111680 -3.251720 3.403230 12.994200 -0.242716 4.980390 -88.598500 -3.015020 -65.053900 5.348090 -0.000007 -0.000001 -66.408000 33.929200 0.666554 24.328600 0.000019 0.000005 5.792230 7.003570 -39.758600 22.291600 -0.000001 0.000005 4.574670 5.574330 -9.912200 12.994500 -0.242716 -4.980390 89.116700 2.571230 -71.033200 -5.348130 -0.000001 -0.000004 -42.905400 26.520900 -36.250500 -24.328900 0.000322 -0.000009 4.267190 4.660450 -42.570100 -22.291500 -0.000108 -0.000004 3.567760 5.578810 -10.148200 -2.192480 -6.469440 -0.000000 -175.102000 -10.010300 -22.710800 39.081100 -0.000007 -0.000012 0.018536 -0.034282 28.399600 40.985400 -0.000006 -0.000013 1.752260 -3.363760 -57.815900 11.754300 -0.000000 0.000003 -0.005385 -0.065148 -19.227800 -2.192510 6.469440 -0.000001 179.488000 13.809200 -179.137000 -39.081100 -0.002282 -0.040193 0.040099 -0.078665 25.062700 -40.985400 0.000008 0.000006 4.982620 -0.585454 -72.410500 -11.754300 -0.000006 -0.000006 -0.005947 -0.070350 -19.436200
0.000000 0.000000 0.000000 0.000000 0.000000 -0.000000 0.898243 90.296400 40.505300 -87.561200 6.855160 -176.788000 15.735700 0.000005 -0.000001 109.353000 80.979700 -108.794000 8.984550 -0.406207 -0.000000 9.263260 5.952720 0.635663 16.377300 -0.000001 -0.000001 6.368520 0.272435 -0.991642 6.456720 -0.000001 -0.000000 1.337660 -3.527640 3.204360 12.994200 -0.242716 4.980390 -88.473300 -3.143790 -64.081200 5.348090 -0.000007 -0.000001 -68.012500 31.972300 3.725020 24.328600 0.000019 0.000005 5.787160 7.316590 -38.513600 22.291600 -0.000001 0.000005 4.631760 5.570680 -9.722970 12.994500 -0.242716 -4.980390 89.316800 2.047880 -71.546500 -5.348130 -0.000001 -0.000004 -40.985800 24.912500 -40.163100 -24.328900 0.000322 -0.000009 4.300480 4.642200 -42.904300 -22.291500 -0.000108 -0.000004 3.754460 5.578000 -10.105200 -2.192480 -6.469440 -0.000000 -173.863000 -10.880500 -21.932100 39.081100 -0.000007 -0.000012 0.002259 -0.007385 17.011800 40.985400 -0.000006 -0.000013 1.056070 -1.751570 -57.853600 11.754300 -0.000000 0.000003 -0.006050 -0.071296 -19.478500 -2.192510 6.469440 -0.000001 179.378000 13.245700 -176.988000 -39.081100 -0.002282 -0.040193 0.033085 -0.063961 24.961500 -40.985400 0.000008 0.000006 4.511040 0.785259 -74.581200 -11.754300 -0.000006 -0.000006 -0.004937 -0.060855 -19.049100
0.000000 0.000000 0.000000 0.000000 0.000000 -0.000000 0.658228 89.471000 37.063300 -86.837800 8.545480 -176.805000 15.735700 0.000005 -0.000001 112.673000 80.701100 -112.034000 8.984550 -0.406207 -0.000000 9.408780 7.137410 0.689735 16.377300 -0.000001 -0.000001 6.436450 0.596411 -0.935228 6.456720 -0.000001 -0.000000 1.572920 -3.698380 3.181690 12.994200 -0.242716 4.980390 -88.285300 -3.440180 -63.485900 5.348090 -0.000007 -0.000001 -69.359000 29.861700 6.510600 24.328600 0.000019 0.000005 5.345030 7.064320 -37.261400 22.291600 -0.000001 0.000005 4.583820 5.570380 -9.707490 12.994500 -0.242716 -4.980390 89.472200 1.614280 -71.891800 -5.348130 -0.000001 -0.000004 -39.890400 23.290900 -43.372000 -24.328900 0.000322 -0.000009 4.369300 4.733430 -42.804700 -22.291500 -0.000108 -0.000004 3.831180 5.578890 -10.152600 -2.192480 -6.469440 -0.000000 -173.241000 -12.356900 -21.200300 39.081100 -0.000007 -0.000012 0.000613 -0.004217 8.277740 40.985400 -0.000006 -0.000013 0.564158 -0.182214 -58.418100 11.754300 -0.000000 0.000003 -0.006135 -0.072068 -19.509900 -2.192510 6.469440 -0.000001 178.627000 13.024600 -174.360000 -39.081100 -0.002282 -0.040193 0.021904 -0.039847 25.012700 -40.985400 0.000008 0.000006 3.954460 2.373340 -76.928000 -11.754300 -0.000006 -0.000006 -0.004367 -0.055202 -18.818800
0.000000 0.000000 0.000000 0.000000 0.000000 -0.000000 0.238877 88.503900 33.272200 -86.652300 9.957330 -176.830000 15.735700 0.000005 -0.000001 115.024000 80.497900 -114.540000 8.984550 -0.406207 -0.000000 9.488840 7.999740 0.303167 16.377300 -0.000001 -0.000001 6.538560 0.762459 -0.856814 6.456720 -0.000001 -0.000000 1.693550 -3.826940 3.488030 12.994200 -0.242716 4.980390 -88.141500 -3.687010 -63.224700 5.348090 -0.000007 -0.000001 -70.124800 28.294000 8.859140 24.328600 0.000019 0.000005 4.953860 6.777060 -36.297300 22.291600 -0.000001 0.000005 4.560950 5.566820 -9.526290 12.994500 -0.242716 -4.980390 89.552200 1.388500 -72.122200 -5.348130 -0.000001 -0.000004 -39.481600 21.843200 -45.683500 -24.328900 0.000322 -0.000009 4.527460 4.903450 -42.818600 -22.291500 -0.000108 -0.000004 3.884830 5.575660 -9.981840 -2.192480 -6.469440 -0.000000 -173.455000 -13.791700 -21.805800 39.081100 -0.000007 -0.000012 -0.000418 0.004753 5.016400 40.985400 -0.000006 -0.000013 -0.577951 -0.854409 -59.079700 11.754300 -0.000000 0.000003 -0.006405 -0.074481 -19.608400 -2.192510 6.469440 -0.000001 177.096000 12.695900 -171.795000 -39.081100 -0.002282 -0.040193 0.009783 -0.013654 25.361900 -40.985400 0.000008 0.000006 3.266420 3.731130 -79.105300 -11.754300 -0.000006 -0.000006 -0.004180 -0.053304 -18.741500
